<mxfile host="65bd71144e">
    <diagram id="T9uuaTeBy4bPSP1g8a4x" name="Page-1">
        <mxGraphModel dx="1002" dy="611" grid="1" gridSize="10" guides="1" tooltips="1" connect="1" arrows="1" fold="1" page="1" pageScale="1" pageWidth="827" pageHeight="1169" background="#FFFFFF" math="0" shadow="0">
            <root>
                <mxCell id="0"/>
                <mxCell id="1" parent="0"/>
                <mxCell id="287" value="Off-core user discussions and approvals&lt;br&gt;(in-process validation)&lt;br&gt;&lt;i&gt;Are the proposed baselines acceptable?&lt;/i&gt;" style="rounded=0;whiteSpace=wrap;html=1;strokeColor=none;fillColor=none;" parent="1" vertex="1">
                    <mxGeometry x="340" y="570" width="280" height="50" as="geometry"/>
                </mxCell>
                <mxCell id="292" value="Off-core verification problem investigation and resolution&lt;br&gt;&lt;i&gt;Is the problem case understood?&lt;/i&gt;" style="rounded=0;whiteSpace=wrap;html=1;strokeColor=none;fillColor=none;" parent="1" vertex="1">
                    <mxGeometry x="325" y="970" width="310" height="40" as="geometry"/>
                </mxCell>
                <mxCell id="295" value="Defined system performance" style="rounded=0;whiteSpace=wrap;html=1;" parent="1" vertex="1">
                    <mxGeometry x="80" y="640" width="100" height="40" as="geometry"/>
                </mxCell>
                <mxCell id="305" style="edgeStyle=none;rounded=0;html=1;entryX=1;entryY=0.5;entryDx=0;entryDy=0;strokeWidth=2;endArrow=block;endFill=1;startSize=3;endSize=3;exitX=0;exitY=0.5;exitDx=0;exitDy=0;" parent="1" source="302" target="296" edge="1">
                    <mxGeometry relative="1" as="geometry">
                        <mxPoint x="410" y="790" as="sourcePoint"/>
                    </mxGeometry>
                </mxCell>
                <mxCell id="296" value="Defined entity performance" style="rounded=0;whiteSpace=wrap;html=1;" parent="1" vertex="1">
                    <mxGeometry x="150" y="730" width="100" height="40" as="geometry"/>
                </mxCell>
                <mxCell id="301" value="Baselines verified" style="rounded=0;whiteSpace=wrap;html=1;" parent="1" vertex="1">
                    <mxGeometry x="360" y="840" width="100" height="40" as="geometry"/>
                </mxCell>
                <mxCell id="302" value="Baselines being verified" style="rounded=0;whiteSpace=wrap;html=1;" parent="1" vertex="1">
                    <mxGeometry x="430" y="730" width="100" height="40" as="geometry"/>
                </mxCell>
                <mxCell id="304" value="" style="endArrow=none;html=1;rounded=0;strokeWidth=1;startSize=3;endSize=3;" parent="1" edge="1">
                    <mxGeometry width="50" height="50" relative="1" as="geometry">
                        <mxPoint x="610" y="630" as="sourcePoint"/>
                        <mxPoint x="610" y="630" as="targetPoint"/>
                        <Array as="points">
                            <mxPoint x="610" y="720"/>
                            <mxPoint x="450" y="970"/>
                            <mxPoint x="240" y="970"/>
                            <mxPoint x="70" y="720"/>
                            <mxPoint x="70" y="630"/>
                            <mxPoint x="210" y="630"/>
                            <mxPoint x="340" y="840"/>
                            <mxPoint x="470" y="630"/>
                        </Array>
                    </mxGeometry>
                </mxCell>
                <mxCell id="306" value="Baseline verification&lt;br&gt;&lt;i&gt;Are we building it right?&lt;/i&gt;" style="rounded=0;whiteSpace=wrap;html=1;strokeColor=none;fillColor=none;" parent="1" vertex="1">
                    <mxGeometry x="260" y="750" width="160" height="40" as="geometry"/>
                </mxCell>
                <mxCell id="307" value="Time and baseline maturity" style="rounded=0;whiteSpace=wrap;html=1;strokeColor=none;fillColor=none;" parent="1" vertex="1">
                    <mxGeometry x="260" y="940" width="160" height="30" as="geometry"/>
                </mxCell>
                <mxCell id="308" style="edgeStyle=none;rounded=0;html=1;exitX=0;exitY=0;exitDx=0;exitDy=0;entryX=1;entryY=0;entryDx=0;entryDy=0;strokeWidth=1;endArrow=block;endFill=1;startSize=3;endSize=3;" parent="1" source="307" target="307" edge="1">
                    <mxGeometry relative="1" as="geometry"/>
                </mxCell>
                <mxCell id="309" value="Baselines to be verified" style="rounded=0;whiteSpace=wrap;html=1;" vertex="1" parent="1">
                    <mxGeometry x="500" y="640" width="100" height="40" as="geometry"/>
                </mxCell>
                <mxCell id="310" style="edgeStyle=none;rounded=0;html=1;entryX=1;entryY=0.5;entryDx=0;entryDy=0;strokeWidth=2;endArrow=block;endFill=1;startSize=3;endSize=3;exitX=0;exitY=0.5;exitDx=0;exitDy=0;" edge="1" parent="1" source="302" target="295">
                    <mxGeometry relative="1" as="geometry">
                        <mxPoint x="440" y="760" as="sourcePoint"/>
                        <mxPoint x="260" y="760" as="targetPoint"/>
                    </mxGeometry>
                </mxCell>
                <mxCell id="311" style="edgeStyle=none;rounded=0;html=1;exitX=0.5;exitY=0;exitDx=0;exitDy=0;strokeWidth=2;endArrow=block;endFill=1;startSize=3;endSize=3;" edge="1" parent="1" source="302">
                    <mxGeometry relative="1" as="geometry">
                        <mxPoint x="480" y="620" as="targetPoint"/>
                        <mxPoint x="210" y="739.9999999999999" as="sourcePoint"/>
                    </mxGeometry>
                </mxCell>
                <mxCell id="312" style="edgeStyle=none;rounded=0;html=1;exitX=0.5;exitY=1;exitDx=0;exitDy=0;strokeWidth=2;endArrow=block;endFill=1;startSize=3;endSize=3;" edge="1" parent="1" source="302">
                    <mxGeometry relative="1" as="geometry">
                        <mxPoint x="480" y="972.2857375372024" as="targetPoint"/>
                        <mxPoint x="465" y="739.9999999999999" as="sourcePoint"/>
                    </mxGeometry>
                </mxCell>
                <mxCell id="313" value="Baseline validation&lt;br&gt;&lt;i&gt;Are we building the right thing?&lt;/i&gt;" style="rounded=0;whiteSpace=wrap;html=1;strokeColor=none;fillColor=none;" vertex="1" parent="1">
                    <mxGeometry x="245" y="650" width="190" height="40" as="geometry"/>
                </mxCell>
                <mxCell id="314" style="edgeStyle=none;rounded=0;html=1;exitX=0.5;exitY=0;exitDx=0;exitDy=0;strokeWidth=2;endArrow=block;endFill=1;startSize=3;endSize=3;entryX=0.5;entryY=1;entryDx=0;entryDy=0;" edge="1" parent="1" source="302" target="309">
                    <mxGeometry relative="1" as="geometry">
                        <mxPoint x="490" y="630" as="targetPoint"/>
                        <mxPoint x="490" y="740" as="sourcePoint"/>
                    </mxGeometry>
                </mxCell>
            </root>
        </mxGraphModel>
    </diagram>
</mxfile>